# xmcd
#
# Track frame offsets: 
#        150
#        19612
#        39894
#
# Disc length: 788 seconds
#
# Revision: 0
# Processed by: cddbd v1.5.2PL0 Copyright (c) Steve Scherf et al.
# Submitted via: ExactAudioCopyFreeDBPlugin 1.0
#
DISCID=14031203
DTITLE=Snoop Dogg - Thst's That (Single)
DYEAR=2006
DGENRE=Rap
TTITLE0=That's That Feat. R. Kelly (Explicit)
TTITLE1=Candy Feat. E-40, Goldie Loc, Daz, Kurupt and MC Eiht (Explicit)
TTITLE2=That's That Feat. R. Kelly (Instrumental)
EXTD=
EXTT0=
EXTT1=
EXTT2=
PLAYORDER=
